<?xml version="1.0" encoding="UTF-8"?>
<svg viewBox="-8 -8 32 32" version="1.1" xmlns="http://www.w3.org/2000/svg">
    <title>Highlight</title>
    <defs></defs>
    <g id="highlighter16" stroke="none" stroke-width="1" fill="none" fill-rule="evenodd">
        <path d="M15.3492408,1.3125 C15.5690528,1.53869048 15.7339118,1.79166667 15.8438178,2.07142857 C15.9479393,2.35119048 16,2.63988095 16,2.9375 C16,3.22916667 15.9479393,3.51488095 15.8438178,3.79464286 C15.7339118,4.07440476 15.5690528,4.32738095 15.3492408,4.55357143 L7.4967462,12.6339286 L5.3362256,12.8035714 L5.3362256,13.7142857 L0,13.7142857 L2.67245119,11.8928571 L3.11496746,9.39285714 L3.73101952,8.75 L3.72234273,8.75 L11.5748373,0.669642857 C11.7946493,0.443452381 12.0404917,0.276785714 12.3123644,0.169642857 C12.5842372,0.056547619 12.8618944,8.8817842e-15 13.1453362,8.8817842e-15 C13.4345625,8.8817842e-15 13.7151121,0.056547619 13.9869848,0.169642857 C14.2588576,0.276785714 14.5046999,0.443452381 14.7245119,0.669642857 L15.3492408,1.3125 Z M14.7245119,3.90178571 C14.845987,3.77678571 14.9414317,3.63095238 15.010846,3.46428571 C15.0744758,3.29166667 15.1062907,3.11309524 15.1062907,2.92857143 C15.1005061,2.75 15.065799,2.57738095 15.0021692,2.41071429 C14.9385394,2.24404762 14.845987,2.0952381 14.7245119,1.96428571 L14.0911063,1.3125 C13.9696312,1.1875 13.8279103,1.0922619 13.6659436,1.02678571 C13.4981923,0.955357143 13.3275488,0.919642857 13.154013,0.919642857 C12.9689082,0.925595238 12.7953724,0.961309524 12.6334056,1.02678571 C12.4714389,1.0922619 12.329718,1.1875 12.208243,1.3125 L4.98047722,8.75 L7.4967462,11.3392857 L14.7245119,3.90178571 Z" id="Shape" fill="#666666" fill-rule="nonzero"></path>
        <polygon id="Shape" fill="#FFB900" fill-rule="nonzero" points="16 16 0 16 0 15 16 15"></polygon>
    </g>
</svg>