<svg xmlns="http://www.w3.org/2000/svg" viewBox="-6041 -10332 32 32">
  <defs>
    <style>
      .cls-1 {
        fill: none;
      }

      .cls-2 {
        fill: #666;
        stroke: rgba(0,0,0,0);
      }
    </style>
  </defs>
  <g id="FB:_Blockquote" data-name="FB: Blockquote" transform="translate(-7068 -10737.999)">
    <rect id="Rectangle_2306" data-name="Rectangle 2306" class="cls-1" width="32" height="32" rx="2" transform="translate(1027 405.999)"/>
    <path id="Path_1832" data-name="Path 1832" class="cls-2" d="M0,.548H2.756V3.4a6.779,6.779,0,0,1-.058.872,4.99,4.99,0,0,1-.191.867,4.138,4.138,0,0,1-.344.793,2.7,2.7,0,0,1-.51.652,2.25,2.25,0,0,1-.7.44,2.419,2.419,0,0,1-.909.162v-1.3a1.132,1.132,0,0,0,.535-.12,1.225,1.225,0,0,0,.386-.315,1.6,1.6,0,0,0,.253-.452,3.431,3.431,0,0,0,.149-.531,4.641,4.641,0,0,0,.075-.552q.021-.278.021-.51H0Zm7.263,0V3.4a6.8,6.8,0,0,1-.133,1.32,3.967,3.967,0,0,1-.448,1.22,2.67,2.67,0,0,1-.834.9,2.279,2.279,0,0,1-1.3.349v-1.3a1.08,1.08,0,0,0,.743-.253,1.664,1.664,0,0,0,.44-.631,3.189,3.189,0,0,0,.208-.809A6.4,6.4,0,0,0,5.993,3.4H4.532V.548Z" transform="translate(1039 418.451)"/>
  </g>
</svg>
