<svg xmlns="http://www.w3.org/2000/svg" viewBox="-6255 -8740 32 32">
  <defs>
    <style>
      .cls-1 {
        fill: none;
      }

      .cls-2 {
        fill: #666;
      }
    </style>
  </defs>
  <g id="FB:_Bold" data-name="FB: Bold" transform="translate(-6999 -9195.999)">
    <rect id="Rectangle_2297" data-name="Rectangle 2297" class="cls-1" width="32" height="32" rx="2" transform="translate(744 455.999)"/>
    <path id="Path_1536" data-name="Path 1536" class="cls-2" d="M9.828-9.031a3.888,3.888,0,0,1,1.548.311,4.012,4.012,0,0,1,1.27.855,4.012,4.012,0,0,1,.855,1.27,3.888,3.888,0,0,1,.311,1.548A3.888,3.888,0,0,1,13.5-3.5a4.012,4.012,0,0,1-.855,1.27,4.012,4.012,0,0,1-1.27.855,3.888,3.888,0,0,1-1.548.311H3.188V-15.937H9.828a3.384,3.384,0,0,1,1.345.27,3.465,3.465,0,0,1,1.1.739,3.465,3.465,0,0,1,.739,1.1,3.384,3.384,0,0,1,.27,1.345,3.384,3.384,0,0,1-.27,1.345,3.465,3.465,0,0,1-.739,1.1,3.465,3.465,0,0,1-1.1.739A3.384,3.384,0,0,1,9.828-9.031ZM6.375-9.562H7.969a2.034,2.034,0,0,0,.822-.17,2.176,2.176,0,0,0,.677-.457,2.19,2.19,0,0,0,.457-.672,2.024,2.024,0,0,0,.17-.826,2.034,2.034,0,0,0-.17-.822,2.176,2.176,0,0,0-.457-.677,2.176,2.176,0,0,0-.677-.457,2.034,2.034,0,0,0-.822-.17H6.375ZM8.5-3.187a2.034,2.034,0,0,0,.822-.17A2.176,2.176,0,0,0,10-3.814a2.19,2.19,0,0,0,.457-.672,2.024,2.024,0,0,0,.17-.826,2.034,2.034,0,0,0-.17-.822A2.176,2.176,0,0,0,10-6.811a2.176,2.176,0,0,0-.677-.457,2.034,2.034,0,0,0-.822-.17H6.375v4.25Z" transform="translate(752 479.999)"/>
  </g>
</svg>
