<svg xmlns="http://www.w3.org/2000/svg" viewBox="-6111 -8692 32 32">
  <defs>
    <style>
      .cls-1 {
        fill: none;
      }

      .cls-2 {
        fill: #2E77D0;
        stroke: #fff;
        stroke-width: 1.5px;
      }

      .cls-3 {
        fill: #666;
      }
    </style>
  </defs>
  <g id="TB:_Insert" data-name="TB: Insert" transform="translate(-6366 -9160.999)">
    <rect id="Rectangle_2291" data-name="Rectangle 2291" class="cls-1" width="32" height="32" rx="2" transform="translate(255 468.999)"/>
    <g id="Group_3880" data-name="Group 3880">
      <path id="Path_990" data-name="Path 990" class="cls-2" d="M1.063-3.187H11.995L4.781-10.409,1.063-6.682Zm14.875,0v-.307L12.219-7.222,10.841-5.844l2.665,2.656Z" transform="translate(263 492.999)"/>
      <path id="Path_1452" data-name="Path 1452" class="cls-3" d="M17-14.875v12.75H0v-12.75ZM1.063-13.812v5.62L4.781-11.9l5.313,5.313,2.125-2.125,3.719,3.71v-8.807Zm0,10.625H11.995L4.781-10.409,1.063-6.682Zm14.875,0v-.307L12.219-7.222,10.841-5.844l2.665,2.656Zm-2.656-7.437a.511.511,0,0,1-.374-.158.511.511,0,0,1-.158-.374.511.511,0,0,1,.158-.374.511.511,0,0,1,.374-.158.511.511,0,0,1,.374.158.511.511,0,0,1,.158.374.511.511,0,0,1-.158.374A.511.511,0,0,1,13.281-10.625Z" transform="translate(263 492.999)"/>
    </g>
  </g>
</svg>
