<svg xmlns="http://www.w3.org/2000/svg" viewBox="-5896 -8824 32 32">
  <defs>
    <style>
      .cls-1 {
        fill: none;
      }

      .cls-2 {
        fill: #666;
      }

      .cls-3 {
        fill: #2E77D0;
      }
    </style>
  </defs>
  <g id="FB:_Paragraph_In" data-name="FB: Paragraph In" transform="translate(-6884 -9191.999)">
    <rect id="Rectangle_2295" data-name="Rectangle 2295" class="cls-1" width="32" height="32" rx="2" transform="translate(988 367.999)"/>
    <g id="Group_3954" data-name="Group 3954">
      <path id="Path_1756" data-name="Path 1756" class="cls-2" d="M-7.437-12.966l5.528,5.528L-7.437-1.909Zm1.063,8.5L-3.4-7.437l-2.972-2.972ZM6.375-14.875v12.75H7.438v1.063H2.125V-2.125H3.188V-8.5H1.594A3.632,3.632,0,0,1,.145-8.791a3.745,3.745,0,0,1-1.183-.8,3.745,3.745,0,0,1-.8-1.183,3.632,3.632,0,0,1-.291-1.448,3.632,3.632,0,0,1,.291-1.448,3.745,3.745,0,0,1,.8-1.183,3.745,3.745,0,0,1,1.183-.8,3.632,3.632,0,0,1,1.448-.291H7.438v1.063ZM3.188-9.562v-5.312H1.594a2.558,2.558,0,0,0-1.033.212,2.724,2.724,0,0,0-.847.573,2.679,2.679,0,0,0-.569.843,2.572,2.572,0,0,0-.208,1.029,2.6,2.6,0,0,0,.208,1.033,2.666,2.666,0,0,0,.569.847A2.666,2.666,0,0,0,.56-9.77a2.6,2.6,0,0,0,1.033.208ZM5.313-2.125v-12.75H4.25v12.75Z" transform="translate(1004 391.999)"/>
      <path id="Path_1404" data-name="Path 1404" class="cls-3" d="M-7.437-12.966l5.528,5.528L-7.437-1.909Zm1.063,8.5L-3.4-7.437l-2.972-2.972Z" transform="translate(1004 391.999)"/>
    </g>
  </g>
</svg>
