<svg xmlns="http://www.w3.org/2000/svg" viewBox="-5860 -8788 32 32">
  <defs>
    <style>
      .cls-1 {
        fill: none;
      }

      .cls-2, .cls-3 {
        fill: #2E77D0;
      }

      .cls-3 {
        stroke: #fff;
        stroke-width: 1.5px;
      }

      .cls-4 {
        fill: #666;
      }
    </style>
  </defs>
  <g id="FB:_Formatting" data-name="FB: Formatting" transform="translate(-6820 -9291.998)">
    <rect id="Rectangle_2295" data-name="Rectangle 2295" class="cls-1" width="32" height="32" rx="2" transform="translate(960 503.998)"/>
    <g id="Group_3976" data-name="Group 3976">
      <path id="Path_1800" data-name="Path 1800" class="cls-2" d="M10.318-1.062h3.495V0H5.62L3.561-2.059a1.561,1.561,0,0,1-.344-.519,1.6,1.6,0,0,1-.12-.61,1.6,1.6,0,0,1,.12-.61,1.561,1.561,0,0,1,.344-.519L7.172-7.927l-.54-1.635H2.93L2.225-7.437H1.063L4.25-17H5.313L8.043-8.8l3.113-3.1,5,5ZM6.275-10.625,4.781-15.107,3.287-10.625Zm4.881.216L6.591-5.844l3.5,3.5,4.565-4.565ZM8.807-1.062l.54-.531-3.5-3.5L4.316-3.561a.511.511,0,0,0-.158.374.511.511,0,0,0,.158.374L6.068-1.062Z" transform="translate(968 527.998)"/>
      <path id="Path_1397" data-name="Path 1397" class="cls-3" d="M8.807-1.062l.54-.531-3.5-3.5L4.316-3.561a.511.511,0,0,0-.158.374.511.511,0,0,0,.158.374L6.068-1.062Z" transform="translate(968 527.998)"/>
      <path id="Path_1398" data-name="Path 1398" class="cls-4" d="M10.318-1.062h3.495V0H5.62L3.561-2.059a1.561,1.561,0,0,1-.344-.519,1.6,1.6,0,0,1-.12-.61,1.6,1.6,0,0,1,.12-.61,1.561,1.561,0,0,1,.344-.519l7.6-7.587,5,5Zm.838-9.347L6.591-5.844l3.5,3.5,4.565-4.565ZM8.807-1.062l.54-.531-3.5-3.5L4.316-3.561a.511.511,0,0,0-.158.374.511.511,0,0,0,.158.374L6.068-1.062Z" transform="translate(968 527.998)"/>
    </g>
  </g>
</svg>
