<svg xmlns="http://www.w3.org/2000/svg" viewBox="-5860 -8860 32 32">
  <defs>
    <style>
      .cls-1 {
        fill: none;
      }

      .cls-2 {
        fill: #666;
      }
    </style>
  </defs>
  <g id="FB:_Strikeout" data-name="FB: Strikeout" transform="translate(-6880 -9195.999)">
    <rect id="Rectangle_2295" data-name="Rectangle 2295" class="cls-1" width="32" height="32" rx="2" transform="translate(1020 335.999)"/>
    <path id="Path_1745" data-name="Path 1745" class="cls-2" d="M8.5-7.437H4.292a2.083,2.083,0,0,0,.145.643,1.589,1.589,0,0,0,.324.506,1.391,1.391,0,0,0,.494.328,1.753,1.753,0,0,0,.656.116,1.725,1.725,0,0,0,.618-.112,2.287,2.287,0,0,0,.552-.3v.73a2.183,2.183,0,0,1-.623.253,2.936,2.936,0,0,1-.681.079,2.4,2.4,0,0,1-.909-.166,2.108,2.108,0,0,1-.71-.465,2.16,2.16,0,0,1-.469-.71,2.562,2.562,0,0,1-.187-.9H2.582a3.234,3.234,0,0,1-.2.876,2.347,2.347,0,0,1-.423.714,1.886,1.886,0,0,1-.652.477A2.127,2.127,0,0,1,.423-5.2,1.58,1.58,0,0,1-1.013-6h-.017v.689h-.764V-7.437H-3.237v2.125h-.772V-6.06h-.017A1.6,1.6,0,0,1-5.5-5.2a2,2,0,0,1-.6-.087,1.35,1.35,0,0,1-.481-.261,1.213,1.213,0,0,1-.32-.436,1.469,1.469,0,0,1-.116-.6,2,2,0,0,1,.05-.444,1.253,1.253,0,0,1,.174-.411H-8.5V-8.5h4.491a1.357,1.357,0,0,0-.249-.768.859.859,0,0,0-.73-.295,2.236,2.236,0,0,0-.834.154,2.7,2.7,0,0,0-.726.436v-.789a2.635,2.635,0,0,1,.78-.336,3.478,3.478,0,0,1,.847-.1,1.638,1.638,0,0,1,1.253.436A1.847,1.847,0,0,1-3.246-8.5h1.453v-3.893h.764v3.138h.017A1.8,1.8,0,0,1,.639-10.2a2.059,2.059,0,0,1,.722.12,1.675,1.675,0,0,1,.564.344,1.873,1.873,0,0,1,.4.54,2.513,2.513,0,0,1,.224.7H3.619a2.274,2.274,0,0,1,.344-.739A2.269,2.269,0,0,1,4.5-9.77a2.262,2.262,0,0,1,.685-.324,2.9,2.9,0,0,1,.8-.108,3.219,3.219,0,0,1,.569.05,1.887,1.887,0,0,1,.535.183v.78a1.892,1.892,0,0,0-1.137-.374,1.539,1.539,0,0,0-.934.282,1.794,1.794,0,0,0-.594.78H8.5Zm-12.509,0h-1.7a.825.825,0,0,0-.407.3.921.921,0,0,0-.116.5.77.77,0,0,0,.075.349.735.735,0,0,0,.2.249.851.851,0,0,0,.291.149,1.207,1.207,0,0,0,.349.05,1.284,1.284,0,0,0,.548-.112,1.25,1.25,0,0,0,.411-.3A1.338,1.338,0,0,0-4.1-6.707a1.626,1.626,0,0,0,.091-.548ZM.448-9.562A1.431,1.431,0,0,0-.44-9.28a1.434,1.434,0,0,0-.515.78h2.7a1.422,1.422,0,0,0-.457-.772A1.247,1.247,0,0,0,.448-9.562ZM.332-5.844a1.366,1.366,0,0,0,.61-.129,1.3,1.3,0,0,0,.44-.349,1.653,1.653,0,0,0,.278-.51,2.75,2.75,0,0,0,.133-.606H-1.029v.174a1.527,1.527,0,0,0,.1.556,1.376,1.376,0,0,0,.278.448,1.307,1.307,0,0,0,.432.3A1.348,1.348,0,0,0,.332-5.844Z" transform="translate(1036 359.999)"/>
  </g>
</svg>
