<svg xmlns="http://www.w3.org/2000/svg" viewBox="-5824 -8896 32 32">
  <defs>
    <style>
      .cls-1 {
        fill: none;
      }

      .cls-2 {
        fill: #666;
      }

      .cls-3 {
        fill: #2E77D0;
      }
    </style>
  </defs>
  <g id="FB:_Superstring" data-name="FB: Superstring" transform="translate(-6876 -9199.999)">
    <rect id="Rectangle_2295" data-name="Rectangle 2295" class="cls-1" width="32" height="32" rx="2" transform="translate(1052 303.999)"/>
    <g id="Group_3921" data-name="Group 3921">
      <path id="Path_1723" data-name="Path 1723" class="cls-2" d="M5.62-12.966a.754.754,0,0,0-.087.1l-.079.112H7.438v1.063H4.25v-.531A1.872,1.872,0,0,1,4.408-13a2.9,2.9,0,0,1,.394-.639,4.425,4.425,0,0,1,.51-.531l.51-.448a3.533,3.533,0,0,0,.394-.4.61.61,0,0,0,.158-.39.511.511,0,0,0-.158-.374.511.511,0,0,0-.374-.158.511.511,0,0,0-.374.158.511.511,0,0,0-.158.374H4.25a1.564,1.564,0,0,1,.125-.623,1.6,1.6,0,0,1,.34-.506,1.6,1.6,0,0,1,.506-.34A1.564,1.564,0,0,1,5.844-17a1.564,1.564,0,0,1,.623.125,1.6,1.6,0,0,1,.506.34,1.6,1.6,0,0,1,.34.506,1.564,1.564,0,0,1,.125.623,1.553,1.553,0,0,1-.125.61,1.687,1.687,0,0,1-.34.519H6.964Zm-2.167.216L.266-8.5,3.453-4.25H2.125L-.4-7.612-2.922-4.25H-4.25L-1.062-8.5-4.25-12.75h1.328L-.4-9.388,2.125-12.75Z" transform="translate(1068 327.999)"/>
      <path id="Path_1394" data-name="Path 1394" class="cls-3" d="M5.62-12.966a.754.754,0,0,0-.087.1l-.079.112H7.438v1.063H4.25v-.531A1.872,1.872,0,0,1,4.408-13a2.9,2.9,0,0,1,.394-.639,4.425,4.425,0,0,1,.51-.531l.51-.448a3.533,3.533,0,0,0,.394-.4.61.61,0,0,0,.158-.39.511.511,0,0,0-.158-.374.511.511,0,0,0-.374-.158.511.511,0,0,0-.374.158.511.511,0,0,0-.158.374H4.25a1.564,1.564,0,0,1,.125-.623,1.6,1.6,0,0,1,.34-.506,1.6,1.6,0,0,1,.506-.34A1.564,1.564,0,0,1,5.844-17a1.564,1.564,0,0,1,.623.125,1.6,1.6,0,0,1,.506.34,1.6,1.6,0,0,1,.34.506,1.564,1.564,0,0,1,.125.623,1.553,1.553,0,0,1-.125.61,1.687,1.687,0,0,1-.34.519H6.964Z" transform="translate(1068 327.999)"/>
    </g>
  </g>
</svg>
