<svg xmlns="http://www.w3.org/2000/svg" viewBox="-7944 -10400 32 32">
  <defs>
    <style>
      .cls-1 {
        fill: none;
      }

      .cls-2 {
        fill: #666;
      }
    </style>
  </defs>
  <g id="FB:_Table" data-name="FB: Table" transform="translate(-8996 -10799.999)">
    <rect id="Rectangle_2295" data-name="Rectangle 2295" class="cls-1" width="32" height="32" rx="2" transform="translate(1052 399.999)"/>
    <path id="Subtraction_1" data-name="Subtraction 1" class="cls-2" d="M9009,10812h-13v-12h13v12Zm-4-3v2h3v-2Zm-4,0v2h3v-2Zm-4,0v2h3v-2Zm8-3v2h3v-2Zm-4,0v2h3v-2Zm-4,0v2h3v-2Zm8-3v2h3v-2Zm-4,0v2h3v-2Zm-4,0v2h3v-2Zm0-2v1h11v-1Z" transform="translate(-7934 -10390)"/>
  </g>
</svg>
