<?xml version="1.0" encoding="UTF-8" standalone="no"?>
<svg
   xmlns:dc="http://purl.org/dc/elements/1.1/"
   xmlns:cc="http://creativecommons.org/ns#"
   xmlns:rdf="http://www.w3.org/1999/02/22-rdf-syntax-ns#"
   xmlns:svg="http://www.w3.org/2000/svg"
   xmlns="http://www.w3.org/2000/svg"
   version="1.1"
   id="svg2"
   width="325"
   height="380">
  <title
     id="title3832">Roman letter A (capital and lower case)</title>
  <defs
     id="defs4" />
  <metadata
     id="metadata7">
    <rdf:RDF>
      <cc:Work
         rdf:about="">
        <dc:format>image/svg+xml</dc:format>
        <dc:type
           rdf:resource="http://purl.org/dc/dcmitype/StillImage" />
        <dc:title>Roman letter A (capital and lower case)</dc:title>
        <dc:date>2014-05-26</dc:date>
        <dc:creator>
          <cc:Agent>
            <dc:title>Hydrargyrum</dc:title>
          </cc:Agent>
        </dc:creator>
        <dc:publisher>
          <cc:Agent>
            <dc:title>Wikipedia</dc:title>
          </cc:Agent>
        </dc:publisher>
        <dc:description>Times New Roman capital &quot;A&quot; and Abadi MT Condensed Light lowercase &quot;a&quot;</dc:description>
        <cc:license
           rdf:resource="http://creativecommons.org/licenses/publicdomain/" />
      </cc:Work>
      <cc:License
         rdf:about="http://creativecommons.org/licenses/publicdomain/">
        <cc:permits
           rdf:resource="http://creativecommons.org/ns#Reproduction" />
        <cc:permits
           rdf:resource="http://creativecommons.org/ns#Distribution" />
        <cc:permits
           rdf:resource="http://creativecommons.org/ns#DerivativeWorks" />
      </cc:License>
    </rdf:RDF>
  </metadata>
  <g
     transform="translate(0,-372.65912)"
     id="layer1">
    <rect
       y="372.362"
       x="0"
       height="380"
       width="325"
       id="rect3071"
       style="fill:#ffffff" />
    <path
       d="M 193.6125,565.01219 H 104.46341 L 88.8411,601.35105 c -3.84903,8.94324 -5.77352,15.62234 -5.77347,20.03732 0,3.50938 1.64143,6.62252 4.92443,9.33943 3.3961,2.60373 10.64122,4.3018 21.73539,5.09423 v 6.28289 H 37.21953 v -6.28289 c 9.62243,-1.69807 15.84871,-3.90557 18.67886,-6.6225 5.77344,-5.43383 12.16952,-16.47133 19.18828,-33.11252 l 80.99831,-189.50548 h 5.94327 l 80.14927,191.54318 c 6.45248,15.39593 12.28254,25.41458 17.4902,30.05597 5.32041,4.52822 12.67874,7.07533 22.07501,7.64135 v 6.28289 h -90.84716 v -6.28289 c 9.16946,-0.45281 15.33913,-1.98108 18.50905,-4.58481 3.28277,-2.6037 4.92425,-5.77345 4.92442,-9.50923 0,-4.98101 -2.26428,-12.84876 -6.79231,-23.60328 L 193.6125,565.01219 m -4.75462,-12.56578 -39.05579,-93.05466 -40.07464,93.05466 h 79.13043"
       style="font-size:347.7663269px;font-family:'Times New Roman';-inkscape-font-specification:'Times New Roman,';fill:#2E77D0"
       id="path3060" />
    <path
       d="m 72.94901,500.13053 c 14.50822,-8.06001 26.69325,-12.09008 36.55512,-12.09021 14.22371,0 24.98636,4.12503 32.28798,12.37468 7.30144,8.34474 10.95221,19.5341 10.95231,33.56812 v 71.54562 c 0,5.2154 2.46535,7.82309 7.39636,7.82308 2.56017,0 5.12045,-0.71118 7.68084,-2.13357 v 15.50392 c -4.55172,2.08615 -9.19815,3.12923 -13.9393,3.12923 -12.32736,0 -18.68065,-7.25412 -19.05986,-21.76238 -4.64652,7.20672 -9.81448,12.65917 -15.50392,16.35734 -5.68958,3.60336 -11.85321,5.40504 -18.49092,5.40504 -10.81011,0 -19.86591,-3.93525 -27.16742,-11.80574 -7.30155,-7.87047 -10.95232,-17.49522 -10.95231,-28.87427 0,-12.04275 4.50418,-22.0468 13.51259,-30.01218 9.10319,-7.96524 28.63716,-13.37027 58.60198,-16.2151 v -11.6635 c 0,-7.68074 -2.51295,-13.98661 -7.53861,-18.91763 -4.93098,-5.02562 -11.09461,-7.53848 -18.49091,-7.5386 -10.52564,0 -22.47361,5.2155 -35.84393,15.64615 v -20.34 m 61.87345,56.75288 c -23.42189,2.84482 -38.26202,6.87489 -44.52044,12.09021 -6.16366,5.12062 -9.24548,11.66355 -9.24545,19.62882 0,7.20674 2.27577,13.18073 6.82741,17.92196 4.55157,4.64645 10.28849,6.96967 17.21078,6.96965 8.62903,0 15.74091,-3.60334 21.33567,-10.81007 5.5946,-7.20668 8.39194,-16.45213 8.39203,-27.73637 v -18.0642"
       style="font-size:291.30300903px;font-family:'Abadi MT Condensed Light';-inkscape-font-specification:'Abadi MT Condensed Light, Bold';fill:#000"
       id="path3064" />
  </g>
</svg>
