<svg xmlns="http://www.w3.org/2000/svg" viewBox="-5896 -8896 32 32">
  <defs>
    <style>
      .cls-1 {
        fill: none;
      }

      .cls-2 {
        fill: #666;
      }
    </style>
  </defs>
  <g id="FB:_Link" data-name="FB: Link" transform="translate(-6884 -9199.999)">
    <rect id="Rectangle_2295" data-name="Rectangle 2295" class="cls-1" width="32" height="32" rx="2" transform="translate(988 303.999)"/>
    <path id="Path_1701" data-name="Path 1701" class="cls-2" d="M4.781-10.625a3.587,3.587,0,0,1,1.448.295,3.788,3.788,0,0,1,1.179.8,3.788,3.788,0,0,1,.8,1.179A3.587,3.587,0,0,1,8.5-6.906a3.587,3.587,0,0,1-.295,1.448,3.788,3.788,0,0,1-.8,1.179,3.788,3.788,0,0,1-1.179.8,3.587,3.587,0,0,1-1.448.295H.531A3.587,3.587,0,0,1-.917-3.482a3.788,3.788,0,0,1-1.179-.8,3.788,3.788,0,0,1-.8-1.179,3.587,3.587,0,0,1-.295-1.448,3.587,3.587,0,0,1,.295-1.448,3.788,3.788,0,0,1,.8-1.179,3.788,3.788,0,0,1,1.179-.8,3.587,3.587,0,0,1,1.448-.295h.531v1.063a4.929,4.929,0,0,0-1.208.145,2.926,2.926,0,0,0-1.017.465,2.327,2.327,0,0,0-.7.822,2.625,2.625,0,0,0-.261,1.224,2.529,2.529,0,0,0,.212,1.029,2.737,2.737,0,0,0,.573.843A2.737,2.737,0,0,0-.5-4.462,2.529,2.529,0,0,0,.531-4.25h4.25a2.529,2.529,0,0,0,1.029-.212,2.737,2.737,0,0,0,.843-.573,2.737,2.737,0,0,0,.573-.843,2.529,2.529,0,0,0,.212-1.029,2.625,2.625,0,0,0-.261-1.224,2.327,2.327,0,0,0-.7-.822,2.926,2.926,0,0,0-1.017-.465A4.929,4.929,0,0,0,4.25-9.562v-1.062Zm-5.844,4.25V-7.437A4.929,4.929,0,0,0,.145-7.583a2.926,2.926,0,0,0,1.017-.465,2.327,2.327,0,0,0,.7-.822,2.625,2.625,0,0,0,.261-1.224,2.529,2.529,0,0,0-.212-1.029,2.737,2.737,0,0,0-.573-.843A2.737,2.737,0,0,0,.5-12.538,2.529,2.529,0,0,0-.531-12.75h-4.25a2.529,2.529,0,0,0-1.029.212,2.737,2.737,0,0,0-.843.573,2.737,2.737,0,0,0-.573.843,2.529,2.529,0,0,0-.212,1.029,2.625,2.625,0,0,0,.261,1.224,2.327,2.327,0,0,0,.7.822,2.926,2.926,0,0,0,1.017.465,4.929,4.929,0,0,0,1.208.145v1.063h-.531A3.587,3.587,0,0,1-6.23-6.67a3.788,3.788,0,0,1-1.179-.8,3.788,3.788,0,0,1-.8-1.179A3.587,3.587,0,0,1-8.5-10.094a3.587,3.587,0,0,1,.295-1.448,3.788,3.788,0,0,1,.8-1.179,3.788,3.788,0,0,1,1.179-.8,3.587,3.587,0,0,1,1.448-.295h4.25a3.587,3.587,0,0,1,1.448.295,3.788,3.788,0,0,1,1.179.8,3.788,3.788,0,0,1,.8,1.179,3.587,3.587,0,0,1,.295,1.448,3.587,3.587,0,0,1-.295,1.448,3.788,3.788,0,0,1-.8,1.179,3.788,3.788,0,0,1-1.179.8,3.587,3.587,0,0,1-1.448.295Z" transform="translate(1004 327.999)"/>
  </g>
</svg>
