<svg xmlns="http://www.w3.org/2000/svg" viewBox="-6327 -8740 32 32">
  <defs>
    <style>
      .cls-1 {
        fill: none;
      }

      .cls-2 {
        fill: #666;
      }
    </style>
  </defs>
  <g id="FB:_Font" data-name="FB: Font" transform="translate(-6999 -9195.999)">
    <rect id="Rectangle_2295" data-name="Rectangle 2295" class="cls-1" width="32" height="32" rx="2" transform="translate(672 455.999)"/>
    <path id="Path_1504" data-name="Path 1504" class="cls-2" d="M6.35-8.5H3.212L2.507-6.375H1.386l2.839-8.5H5.337L7.562-8.218,6.89-6.873ZM5.993-9.562,4.781-13.2,3.569-9.562Zm8.151,5.636q.141.34.261.606a1.782,1.782,0,0,0,.286.452,1.046,1.046,0,0,0,.415.282,1.838,1.838,0,0,0,.647.1v.365H12.028V-2.49q.141,0,.311,0a1.193,1.193,0,0,0,.32-.033.524.524,0,0,0,.249-.137.418.418,0,0,0,.1-.307,1.382,1.382,0,0,0-.054-.324q-.054-.208-.133-.448t-.174-.494q-.1-.253-.183-.477t-.154-.386q-.066-.162-.091-.22H8.5q-.025.066-.1.228T8.23-4.7q-.1.22-.2.469t-.191.486q-.087.237-.141.444a1.4,1.4,0,0,0-.054.332.382.382,0,0,0,.1.295A.571.571,0,0,0,8-2.544a1.462,1.462,0,0,0,.32.042q.17,0,.3.012v.365H5.5V-2.49a2.909,2.909,0,0,0,.631-.174.984.984,0,0,0,.365-.27,1.69,1.69,0,0,0,.249-.427l.274-.656,3.254-7.67h.681ZM11.729-6.375,10.26-9.538l-1.4,3.163Z" transform="translate(680 479.999)"/>
  </g>
</svg>
