<?xml version="1.0" encoding="UTF-8"?>
<svg viewBox="-8 -8 32 32" version="1.1" xmlns="http://www.w3.org/2000/svg">
    <title>fontsize16</title>
    <defs></defs>
    <g id="fontsize16" stroke="none" stroke-width="1" fill="none" fill-rule="evenodd">
        <g id="Group-5" transform="translate(1.000000, -2.100000)">
            <polygon id="Fill-1" fill="#2E77D0" points="14.0585714 3.65571429 11.714 1.31171429 9.37 3.65571429 8.91571429 3.20142857 11.714 0.402571429 14.5128571 3.20142857"></polygon>
            <polygon id="Fill-2" fill="#2E77D0" points="11.7142857 8.16908571 8.916 5.37022857 9.36971429 4.91594286 11.7142857 7.25937143 14.0588571 4.91594286 14.5125714 5.37022857"></polygon>
            <path d="M4.90514286,5.04577143 L4.87142857,5.04577143 C4.77657143,5.41948571 4.68457143,5.71834286 4.59542857,5.9412 L2.57828571,11.4286286 L7.20685714,11.4286286 L5.18114286,5.95834286 L4.90514286,5.04577143 Z M8.86457143,16.0000571 L7.49142857,12.2109143 L2.28514286,12.2109143 L0.912571429,16.0000571 L0,16.0000571 L4.52857143,4.00005714 L5.31542857,4.00005714 L9.79371429,16.0000571 L8.86457143,16.0000571 Z" id="Fill-3" fill="#666666"></path>
        </g>
    </g>
</svg>