<svg xmlns="http://www.w3.org/2000/svg" viewBox="-20 -20 88 88"><path d="M24.997 47.511C11.214 47.511 0 36.298 0 22.515 0 12.969 5.314 4.392 13.869.132a1 1 0 0 1 1.151.186c.303.303.381.766.192 1.15C13.651 4.64 12.86 8.05 12.86 11.601c0 12.681 10.316 22.997 22.997 22.997 3.59 0 7.033-.809 10.236-2.403a1 1 0 0 1 1.343 1.336c-4.24 8.622-12.839 13.98-22.439 13.98zM12.248 3.372C5.862 7.608 2 14.709 2 22.515c0 12.68 10.316 22.996 22.997 22.996 7.854 0 14.981-3.898 19.207-10.343-2.668.95-5.464 1.43-8.346 1.43-13.783 0-24.997-11.214-24.997-24.997 0-2.84.466-5.596 1.387-8.229z" fill="#010002"/></svg>