<?xml version="1.0" encoding="UTF-8"?>
<svg viewBox="0 0 32 32" version="1.1" xmlns="http://www.w3.org/2000/svg" xmlns:xlink="http://www.w3.org/1999/xlink">
    <defs>
        <path d="M2,7 C2.1406257,7 2.27083273,7.02604141 2.390625,7.078125 C2.51041727,7.13020859 2.61588496,7.20182246 2.70703125,7.29296875 C2.79817754,7.38411504 2.86979141,7.48958273 2.921875,7.609375 C2.97395859,7.72916727 3,7.8593743 3,8 C3,8.1406257 2.97395859,8.27083273 2.921875,8.390625 C2.86979141,8.51041727 2.79817754,8.61588496 2.70703125,8.70703125 C2.61588496,8.79817754 2.51041727,8.86979141 2.390625,8.921875 C2.27083273,8.97395859 2.1406257,9 2,9 C1.8593743,9 1.72916727,8.97395859 1.609375,8.921875 C1.48958273,8.86979141 1.38411504,8.79817754 1.29296875,8.70703125 C1.20182246,8.61588496 1.13020859,8.51041727 1.078125,8.390625 C1.02604141,8.27083273 1,8.1406257 1,8 C1,7.8593743 1.02604141,7.72916727 1.078125,7.609375 C1.13020859,7.48958273 1.20182246,7.38411504 1.29296875,7.29296875 C1.38411504,7.20182246 1.48958273,7.13020859 1.609375,7.078125 C1.72916727,7.02604141 1.8593743,7 2,7 Z M8,7 C8.1406257,7 8.27083273,7.02604141 8.390625,7.078125 C8.51041727,7.13020859 8.61588496,7.20182246 8.70703125,7.29296875 C8.79817754,7.38411504 8.86979141,7.48958273 8.921875,7.609375 C8.97395859,7.72916727 9,7.8593743 9,8 C9,8.1406257 8.97395859,8.27083273 8.921875,8.390625 C8.86979141,8.51041727 8.79817754,8.61588496 8.70703125,8.70703125 C8.61588496,8.79817754 8.51041727,8.86979141 8.390625,8.921875 C8.27083273,8.97395859 8.1406257,9 8,9 C7.8593743,9 7.72916727,8.97395859 7.609375,8.921875 C7.48958273,8.86979141 7.38411504,8.79817754 7.29296875,8.70703125 C7.20182246,8.61588496 7.13020859,8.51041727 7.078125,8.390625 C7.02604141,8.27083273 7,8.1406257 7,8 C7,7.8593743 7.02604141,7.72916727 7.078125,7.609375 C7.13020859,7.48958273 7.20182246,7.38411504 7.29296875,7.29296875 C7.38411504,7.20182246 7.48958273,7.13020859 7.609375,7.078125 C7.72916727,7.02604141 7.8593743,7 8,7 Z M14,7 C14.1406257,7 14.2708327,7.02604141 14.390625,7.078125 C14.5104173,7.13020859 14.615885,7.20182246 14.7070312,7.29296875 C14.7981775,7.38411504 14.8697914,7.48958273 14.921875,7.609375 C14.9739586,7.72916727 15,7.8593743 15,8 C15,8.1406257 14.9739586,8.27083273 14.921875,8.390625 C14.8697914,8.51041727 14.7981775,8.61588496 14.7070312,8.70703125 C14.615885,8.79817754 14.5104173,8.86979141 14.390625,8.921875 C14.2708327,8.97395859 14.1406257,9 14,9 C13.8593743,9 13.7291673,8.97395859 13.609375,8.921875 C13.4895827,8.86979141 13.384115,8.79817754 13.2929688,8.70703125 C13.2018225,8.61588496 13.1302086,8.51041727 13.078125,8.390625 C13.0260414,8.27083273 13,8.1406257 13,8 C13,7.8593743 13.0260414,7.72916727 13.078125,7.609375 C13.1302086,7.48958273 13.2018225,7.38411504 13.2929688,7.29296875 C13.384115,7.20182246 13.4895827,7.13020859 13.609375,7.078125 C13.7291673,7.02604141 13.8593743,7 14,7 Z" id="path-1"></path>
    </defs>
    <g id="16x16_Ellipses" stroke="none" stroke-width="1" fill="none" fill-rule="evenodd" transform="translate(8,8)">
        <mask id="mask-2" fill="white">
            <use xlink:href="#path-1"></use>
        </mask>
        <use id="Mask" fill="#000000" xlink:href="#path-1"></use>
    </g>
</svg>