<svg xmlns="http://www.w3.org/2000/svg" viewBox="-10536 -10457 32 32">
  <defs>
    <style>
      .cls-1 {
        fill: none;
      }

      .cls-2 {
        fill: #666;
      }

      .cls-3 {
        fill: #2E77D0;
      }
    </style>
  </defs>
  <g id="_01-OL" data-name="01-OL" transform="translate(-11603 -10912.999)">
    <rect id="Rectangle_2306" data-name="Rectangle 2306" class="cls-1" width="32" height="32" rx="2" transform="translate(1067 455.999)"/>
    <rect id="Rectangle_3057" data-name="Rectangle 3057" class="cls-2" width="12" height="1" transform="translate(1079 466.999)"/>
    <rect id="Rectangle_3058" data-name="Rectangle 3058" class="cls-2" width="12" height="1" transform="translate(1079 470.999)"/>
    <rect id="Rectangle_3059" data-name="Rectangle 3059" class="cls-2" width="12" height="1" transform="translate(1079 474.999)"/>
    <path id="Path_1833" data-name="Path 1833" class="cls-3" d="M1.121-14.1a1.5,1.5,0,0,1-.311.178.877.877,0,0,1-.353.087v-.573q.257-.091.49-.2a2.376,2.376,0,0,0,.448-.274H1.8v3.2H1.121Zm-.008,3.486a1.414,1.414,0,0,1,.394.054.9.9,0,0,1,.324.166.794.794,0,0,1,.216.278.9.9,0,0,1,.079.39.982.982,0,0,1-.1.452,1.49,1.49,0,0,1-.245.349,2.013,2.013,0,0,1-.32.274q-.174.12-.32.224A1.744,1.744,0,0,0,.9-8.222a.307.307,0,0,0-.1.212H2.125v.573H.042q0-.191,0-.34A.89.89,0,0,1,.125-8.1a1.39,1.39,0,0,1,.34-.477q.216-.2.427-.361a3.419,3.419,0,0,0,.369-.332.548.548,0,0,0,.158-.39.366.366,0,0,0-.125-.315.549.549,0,0,0-.332-.091.958.958,0,0,0-.411.091,1.608,1.608,0,0,0-.361.232v-.606A1.674,1.674,0,0,1,1.112-10.617Zm.3,5.8a.944.944,0,0,1,.506.224.639.639,0,0,1,.208.506.877.877,0,0,1-.1.44.865.865,0,0,1-.27.295,1.19,1.19,0,0,1-.386.166,1.858,1.858,0,0,1-.444.054,2.5,2.5,0,0,1-.4-.033,1.341,1.341,0,0,1-.386-.125v-.606a1.155,1.155,0,0,0,.344.174,1.292,1.292,0,0,0,.386.058.8.8,0,0,0,.386-.091.351.351,0,0,0,.17-.34.326.326,0,0,0-.108-.27.657.657,0,0,0-.261-.125,1.347,1.347,0,0,0-.32-.037H.448v-.531H.714A1.377,1.377,0,0,0,1-5.084.508.508,0,0,0,1.233-5.2a.323.323,0,0,0,.1-.257.32.32,0,0,0-.137-.3.621.621,0,0,0-.328-.083,1.068,1.068,0,0,0-.614.2V-6.2a1.452,1.452,0,0,1,.378-.129,2.092,2.092,0,0,1,.394-.037,1.643,1.643,0,0,1,.365.042.946.946,0,0,1,.324.137.787.787,0,0,1,.232.245.671.671,0,0,1,.091.357.74.74,0,0,1-.162.5.868.868,0,0,1-.461.261Z" transform="translate(1075 480.999)"/>
  </g>
</svg>
