<svg id="Paste" xmlns="http://www.w3.org/2000/svg" viewBox="0 0 32 32"><defs><style>.cls-1{fill:#2e77d0;}.cls-2{fill:#fff;}.cls-3{fill:#666;}</style></defs><polygon class="cls-1" points="9.63 10.69 10.69 10.69 10.69 9.63 8.56 9.63 8.56 23.44 14.94 23.44 14.94 22.38 9.63 22.38 9.63 10.69"/><polygon class="cls-1" points="19.19 9.63 19.19 10.69 20.25 10.69 20.25 13.88 21.31 13.88 21.31 9.63 19.19 9.63"/><path class="cls-2" d="M11.75,10.69v1.06h6.37V10.69H16v-.28c0-.1,0-.2,0-.3a5.4,5.4,0,0,0,0-.56,1.47,1.47,0,0,0-.14-.49.88.88,0,0,0-.33-.36,1,1,0,0,0-.57-.14,1.06,1.06,0,0,0-.58.14.86.86,0,0,0-.32.36,1.27,1.27,0,0,0-.14.49,5.4,5.4,0,0,0,0,.56v.3c0,.1,0,.19,0,.28Z"/><rect class="cls-2" x="16" y="14.94" width="6.38" height="8.5"/><path class="cls-3" d="M19.19,12.81l-8.5,0V9.62h2.12A2.11,2.11,0,0,1,13,8.8a2.28,2.28,0,0,1,.46-.67,2.09,2.09,0,0,1,1.5-.63,2.08,2.08,0,0,1,.82.17,2.15,2.15,0,0,1,.68.46,2.08,2.08,0,0,1,.45.67,2,2,0,0,1,.17.82h2.13Zm-7.44-2.12v1.06h6.37V10.69H16v-.28c0-.1,0-.2,0-.3a5.4,5.4,0,0,0,0-.56,1.47,1.47,0,0,0-.14-.49.88.88,0,0,0-.33-.36,1,1,0,0,0-.57-.14,1.06,1.06,0,0,0-.58.14.86.86,0,0,0-.32.36,1.27,1.27,0,0,0-.14.49,5.4,5.4,0,0,0,0,.56v.3c0,.1,0,.19,0,.28Z"/><path class="cls-3" d="M22,13.88H14.94V24.5h8.5V13.88Zm.37,9.56H16v-8.5h6.38Z"/></svg>