<svg xmlns="http://www.w3.org/2000/svg" viewBox="-5860 -8824 32 32">
  <defs>
    <style>
      .cls-1 {
        fill: none;
      }

      .cls-2 {
        fill: #666;
      }

      .cls-3 {
        fill: #2E77D0;
      }
    </style>
  </defs>
  <g id="FB:_Paragraph_Out" data-name="FB: Paragraph Out" transform="translate(-6880 -9191.999)">
    <rect id="Rectangle_2295" data-name="Rectangle 2295" class="cls-1" width="32" height="32" rx="2" transform="translate(1020 367.999)"/>
    <g id="Group_3965" data-name="Group 3965">
      <path id="Path_1767" data-name="Path 1767" class="cls-2" d="M1.063-15.937v1.063H0v12.75H1.063v1.063H-4.25V-2.125h1.063V-8.5H-4.781A3.632,3.632,0,0,1-6.23-8.791a3.745,3.745,0,0,1-1.183-.8,3.745,3.745,0,0,1-.8-1.183A3.632,3.632,0,0,1-8.5-12.219a3.632,3.632,0,0,1,.291-1.448,3.745,3.745,0,0,1,.8-1.183,3.745,3.745,0,0,1,1.183-.8,3.632,3.632,0,0,1,1.448-.291Zm-4.25,6.375v-5.312H-4.781a2.558,2.558,0,0,0-1.033.212,2.724,2.724,0,0,0-.847.573,2.679,2.679,0,0,0-.569.843,2.572,2.572,0,0,0-.208,1.029,2.6,2.6,0,0,0,.208,1.033,2.666,2.666,0,0,0,.569.847,2.666,2.666,0,0,0,.847.569,2.6,2.6,0,0,0,1.033.208Zm2.125,7.438v-12.75H-2.125v12.75Zm8.5-10.841V-1.909L1.909-7.437ZM6.375-10.409,3.4-7.437,6.375-4.466Z" transform="translate(1036 391.999)"/>
      <path id="Path_1401" data-name="Path 1401" class="cls-3" d="M7.438-12.966V-1.909L1.909-7.437ZM6.375-10.409,3.4-7.437,6.375-4.466Z" transform="translate(1036 391.999)"/>
    </g>
  </g>
</svg>
