<svg xmlns="http://www.w3.org/2000/svg" viewBox="-6183 -8740 32 32">
  <defs>
    <style>
      .cls-1 {
        fill: none;
      }

      .cls-2 {
        fill: #666;
      }
    </style>
  </defs>
  <g id="FB:_Underline" data-name="FB: Underline" transform="translate(-6999 -9196)">
    <rect id="Rectangle_2299" data-name="Rectangle 2299" class="cls-1" width="32" height="32" rx="2" transform="translate(816 456)"/>
    <path id="Path_1568" data-name="Path 1568" class="cls-2" d="M13.813-17v9.563A5.2,5.2,0,0,1,13.4-5.366,5.344,5.344,0,0,1,12.26-3.677,5.344,5.344,0,0,1,10.571-2.54,5.2,5.2,0,0,1,8.5-2.125,5.2,5.2,0,0,1,6.429-2.54,5.344,5.344,0,0,1,4.74-3.677,5.344,5.344,0,0,1,3.6-5.366a5.2,5.2,0,0,1-.415-2.071V-17H4.25v9.563a4.092,4.092,0,0,0,.336,1.652A4.336,4.336,0,0,0,5.5-4.437a4.336,4.336,0,0,0,1.349.913A4.092,4.092,0,0,0,8.5-3.187a4.092,4.092,0,0,0,1.652-.336A4.336,4.336,0,0,0,11.5-4.437a4.336,4.336,0,0,0,.913-1.349,4.092,4.092,0,0,0,.336-1.652V-17ZM3.188-1.062H13.813V0H3.188Z" transform="translate(824 480)"/>
  </g>
</svg>
